<?xml version="1.0" standalone="no"?>
<!DOCTYPE svg PUBLIC "-//W3C//DTD SVG 20010904//EN"
 "http://www.w3.org/TR/2001/REC-SVG-20010904/DTD/svg10.dtd">
<svg version="1.0" xmlns="http://www.w3.org/2000/svg"
 width="611.000000pt" height="610.000000pt" viewBox="0 0 611.000000 610.000000"
 preserveAspectRatio="xMidYMid meet">
<metadata>
Created by potrace 1.15, written by Peter Selinger 2001-2017
</metadata>
<g transform="translate(0.000000,610.000000) scale(0.100000,-0.100000)"
fill="#000000" stroke="none">
<path d="M2805 4410 c-560 -103 -1003 -541 -1120 -1107 -35 -170 -29 -431 15
-596 32 -120 48 -163 106 -282 68 -140 135 -236 249 -354 201 -209 440 -341
725 -402 139 -29 400 -32 535 -6 484 94 874 419 1055 878 101 254 118 591 43
859 -143 519 -573 914 -1100 1010 -141 26 -366 26 -508 0z m542 -332 c-3 -13
-9 -40 -12 -60 l-7 -37 -61 -3 -61 -3 -42 -185 c-23 -102 -39 -188 -37 -192 2
-5 31 -8 63 -8 l59 0 -19 -57 c-10 -32 -33 -107 -50 -168 -18 -60 -43 -146
-56 -189 -14 -43 -22 -81 -19 -84 2 -3 28 -7 57 -9 29 -2 54 -6 56 -8 2 -2
-25 -59 -61 -127 -35 -68 -97 -186 -137 -263 -40 -77 -75 -142 -78 -145 -6 -6
-1 17 43 210 20 85 39 167 42 183 l6 27 -63 0 c-46 0 -61 3 -57 13 9 25 106
334 123 392 9 33 19 66 21 73 4 9 -10 12 -51 12 -55 0 -55 0 -50 28 27 146 81
489 77 495 -2 4 -31 7 -64 7 -32 0 -59 1 -59 3 0 8 30 99 35 107 4 6 89 10
207 10 l200 0 -5 -22z m-638 -229 c37 -8 58 -20 81 -45 l30 -35 0 -157 c-1
-107 -5 -167 -14 -187 -11 -25 -11 -35 1 -59 12 -22 14 -62 11 -175 -3 -133
-5 -149 -27 -185 -43 -68 -66 -76 -233 -76 l-148 0 0 465 0 465 125 0 c68 0
147 -5 174 -11z m1009 -71 l3 -57 -123 -3 -123 -3 -3 -127 -3 -128 91 0 90 0
0 -65 0 -65 -90 0 -90 0 0 -200 0 -200 -65 0 -65 0 0 455 0 455 188 -2 187 -3
3 -57z m-1475 -896 c31 -407 390 -734 807 -736 435 -1 779 312 825 752 l7 62
67 0 c37 0 70 -2 72 -5 3 -2 1 -46 -3 -97 -24 -307 -238 -617 -523 -760 -85
-43 -241 -88 -345 -99 -220 -24 -469 43 -655 176 -74 53 -191 172 -239 244
-88 131 -149 303 -162 455 l-7 86 75 0 75 0 6 -78z"/>
<path d="M2540 3595 l0 -136 73 3 72 3 0 130 0 130 -72 3 -73 3 0 -136z"/>
<path d="M2540 3195 l0 -135 69 0 c54 0 70 4 75 16 3 9 6 69 6 135 l0 119 -75
0 -75 0 0 -135z"/>
</g>
</svg>
