<svg width="294" height="287" xmlns="http://www.w3.org/2000/svg" preserveAspectRatio="xMidYMid meet">
 <metadata>Created by potrace 1.15, written by Peter Selinger 2001-2017</metadata>
 <defs>
  <filter id="svg_1_blur">
   <feGaussianBlur stdDeviation="0.1" in="SourceGraphic"/>
  </filter>
 </defs>
 <g>
  <title>background</title>
  <rect fill="none" id="canvas_background" height="289" width="296" y="-1" x="-1"/>
 </g>
 <g>
  <title>Layer 1</title>
  <g filter="url(#svg_1_blur)" id="svg_1" fill="#ffffff" transform="translate(0, 610) scale(0.1, -0.1)">
   <path id="svg_2" d="m1202.5,6021.25c-560,-103 -1003,-541 -1120,-1107c-35,-170 -29,-431 15,-596c32,-120 48,-163 106,-282c68,-140 135,-236 249,-354c201,-209 440,-341 725,-402c139,-29 400,-32 535,-6c484,94 874,419 1055,878c101,254 118,591 43,859c-143,519 -573,914 -1100,1010c-141,26 -366,26 -508,0zm542,-332c-3,-13 -9,-40 -12,-60l-7,-37l-61,-3l-61,-3l-42,-185c-23,-102 -39,-188 -37,-192c2,-5 31,-8 63,-8l59,0l-19,-57c-10,-32 -33,-107 -50,-168c-18,-60 -43,-146 -56,-189c-14,-43 -22,-81 -19,-84c2,-3 28,-7 57,-9c29,-2 54,-6 56,-8c2,-2 -25,-59 -61,-127c-35,-68 -97,-186 -137,-263c-40,-77 -75,-142 -78,-145c-6,-6 -1,17 43,210c20,85 39,167 42,183l6,27l-63,0c-46,0 -61,3 -57,13c9,25 106,334 123,392c9,33 19,66 21,73c4,9 -10,12 -51,12c-55,0 -55,0 -50,28c27,146 81,489 77,495c-2,4 -31,7 -64,7c-32,0 -59,1 -59,3c0,8 30,99 35,107c4,6 89,10 207,10l200,0l-5,-22zm-638,-229c37,-8 58,-20 81,-45l30,-35l0,-157c-1,-107 -5,-167 -14,-187c-11,-25 -11,-35 1,-59c12,-22 14,-62 11,-175c-3,-133 -5,-149 -27,-185c-43,-68 -66,-76 -233,-76l-148,0l0,465l0,465l125,0c68,0 147,-5 174,-11zm1009,-71l3,-57l-123,-3l-123,-3l-3,-127l-3,-128l91,0l90,0l0,-65l0,-65l-90,0l-90,0l0,-200l0,-200l-65,0l-65,0l0,455l0,455l188,-2l187,-3l3,-57zm-1475,-896c31,-407 390,-734 807,-736c435,-1 779,312 825,752l7,62l67,0c37,0 70,-2 72,-5c3,-2 1,-46 -3,-97c-24,-307 -238,-617 -523,-760c-85,-43 -241,-88 -345,-99c-220,-24 -469,43 -655,176c-74,53 -191,172 -239,244c-88,131 -149,303 -162,455l-7,86l75,0l75,0l6,-78z"/>
   <path id="svg_3" d="m937.5,5206.25l0,-136l73,3l72,3l0,130l0,130l-72,3l-73,3l0,-136z"/>
   <path id="svg_4" d="m937.5,4806.25l0,-135l69,0c54,0 70,4 75,16c3,9 6,69 6,135l0,119l-75,0l-75,0l0,-135z"/>
  </g>
 </g>
</svg>
